<?xml version="1.0" encoding="UTF-8"?>
<svg width="48px" height="45px" viewBox="0 0 48 45" version="1.1" xmlns="http://www.w3.org/2000/svg" xmlns:xlink="http://www.w3.org/1999/xlink">
    <!-- Generator: sketchtool 59 (101010) - https://sketch.com -->
    <title>09FCFD1D-6B5A-43BA-B0E8-D3C9ADEA2431</title>
    <desc>Created with sketchtool.</desc>
    <g id="All-Pages" stroke="none" stroke-width="1" fill="none" fill-rule="evenodd">
        <g id="Home" transform="translate(-1117.000000, -43.000000)">
            <g id="above-the-fold">
                <g id=":header">
                    <g id=":social-[30h]" transform="translate(1117.000000, 43.000000)">
                        <g id="facebook">
                            <path d="M38.9807754,6.93751314 C38.8128179,6.85550571 38.62357,6.64181328 38.6007026,6.46991309 C38.4343221,5.22560805 37.3666484,4.69729095 36.5394773,4.11771921 C35.3353875,3.27477746 33.997247,2.44050957 32.5960239,2.11247985 C31.1569512,1.7765648 30.0049046,0.568532277 28.4010285,0.823228429 C28.0469772,0.879214271 27.9405252,0.462080325 27.743392,0.234194295 C27.6495566,0.126165277 27.505255,0.0638711712 27.4106311,0 C26.9911315,0.0867386276 27.1551464,0.591399734 26.7088367,0.715987944 C25.3833128,0.00236559893 23.9718387,0.830325226 22.5335546,0.775916451 C20.9083881,0.714410878 19.4030787,1.57864302 17.82207,1.91140394 C16.8797731,2.11011425 16.0431396,2.32696082 15.382349,3.05635382 C15.2593379,3.19119296 14.9999105,3.30237611 14.8264333,3.27635452 C14.0457856,3.15965164 13.57582,3.69979673 13.0475029,4.08381229 C12.7084337,4.33141165 12.370153,4.54746969 11.9853489,4.71700428 C10.158318,5.52367351 8.63408378,6.82711853 7.28884652,8.20783977 C5.13615149,10.4188862 3.13958599,12.8373169 1.89843508,15.709154 C1.2818023,17.1340331 0.151046004,18.4374781 0.434129343,20.1627883 C0.556351955,20.9055863 0.319792062,21.5923985 0.208608912,22.3020782 C-0.0673776307,24.0510444 -0.00587205835,25.8181468 0.0398628544,27.5726326 C0.0635188437,28.4337107 0.498789048,29.2766524 0.585527675,30.1440387 C0.757427865,31.8756571 1.31807481,33.4850529 2.05062195,35.0258464 C3.09858228,37.2305846 4.40912409,39.308369 5.99565244,41.1495935 C7.32433051,42.691964 8.85093035,44.0963412 10.9145212,45 C10.7576031,44.522149 10.6345919,44.0923985 10.3231214,43.9922549 C9.58505456,43.7549064 9.26175603,43.1201374 8.98734656,42.5665872 C8.35021191,41.2797014 7.4102806,40.2956123 6.39149599,39.3249282 C5.74884162,38.712238 5.04389313,37.9623432 4.71428635,37.2558176 C4.20489405,36.1636994 3.70811827,35.0392514 3.22159342,33.9203231 C2.58682437,32.458383 1.93155347,30.9680557 2.19965468,29.2853263 C2.24775519,28.9856837 2.24144693,28.6403063 2.14130324,28.3588 C1.09807411,25.4388624 2.47012149,22.6719002 2.66094647,19.8323929 C2.66725474,19.7354034 2.73270297,19.6376253 2.78553468,19.5493096 C3.59299245,18.2088035 3.7089068,16.617544 4.40991262,15.2178979 C5.36561459,13.3120137 6.36941707,11.4873484 8.24060583,10.3423985 C8.82254317,9.98598164 9.31143361,9.52705544 9.85315577,9.13042335 C10.1015437,8.94827224 10.2955228,8.65414944 10.6211869,8.65178384 C11.5784659,8.64310997 12.1391129,8.08482863 12.5641321,7.32231724 C12.7265699,7.03056003 13.0372519,6.93199341 13.2588297,6.7285519 C14.1877215,5.87535922 15.490378,5.80517979 16.4981232,5.13177262 C17.8701706,4.21628583 19.5142618,4.27621434 21.0298222,3.87642812 C21.3192138,3.79994042 21.6598601,3.78890096 21.9390007,3.97262914 C22.5225151,4.35506764 23.117069,4.16976239 23.7423756,4.09800589 C25.3115563,3.9166433 26.9856118,3.00115652 28.3584477,4.62395738 C28.4160106,4.69177122 28.5611007,4.75012266 28.6367998,4.72488961 C29.2069092,4.54273849 29.6114266,4.59635873 30.135801,5.05055373 C30.505623,5.37227518 31.283905,5.09076891 31.8997493,5.29421042 C32.4919376,5.48976659 33.0115808,5.74446275 33.5596112,6.02912315 C34.4269975,6.47937548 35.1768924,7.18353543 36.0411245,7.49973716 C37.2325978,7.93579589 38.0219193,8.76138992 38.898768,9.54203757 C39.1676578,9.78254013 39.4128915,10.0947992 39.7306703,10.2280613 C40.6658704,10.6199622 41.1389902,11.4148034 41.6223609,12.2143758 C41.8360534,12.5692157 42.0150504,12.9477115 42.2476676,13.2883577 C43.5077433,15.1319479 44.6629441,17.036255 45.1329097,19.24809 C45.4522656,20.7518224 46.1682535,22.1325436 46.2076802,23.7379968 C46.263666,26.0334163 46.1721962,28.2681187 45.6233773,30.521746 C44.934988,33.344694 44.2647349,36.1447747 42.604873,38.5947466 C42.4014315,38.8951777 42.1514666,39.2208418 42.3162699,39.7862199 C43.9737663,37.8842784 45.2567094,35.9878566 45.5752767,33.5662718 C45.6557071,32.9551588 45.7968545,32.3077732 46.0901888,31.776302 C47.2997984,29.5912771 47.3518415,27.1562872 47.3623397,24.8135558 C47.3810173,20.6335424 46.3133436,16.5773288 44.2647349,12.9666363 C42.9620785,10.6720053 41.5789916,8.21020537 38.9807754,6.93751314" id="Fill-4" fill="#BDBDBD" fill-rule="nonzero"></path>
                            <path d="M23.8333333,19.8333333 L27.25,19.8333333 L26.8229167,23.25 L23.8333333,23.25 L23.8333333,33.5 L19.4023438,33.5 L19.4023438,23.25 L17,23.25 L17,19.8333333 L19.4023438,19.8333333 L19.4023438,17.5377604 C19.4023438,16.0429613 19.7760379,14.9129813 20.5234375,14.1477865 C21.2708371,13.3825917 22.5164843,13 24.2604167,13 L27.25,13 L27.25,16.4166667 L25.4348958,16.4166667 C24.7586772,16.4166667 24.3227006,16.5234364 24.1269531,16.7369792 C23.9312056,16.9505219 23.8333333,17.3064211 23.8333333,17.8046875 L23.8333333,19.8333333 Z" id="ion-social-facebook---Ionicons" fill="#FFFFFF"></path>
                        </g>
                    </g>
                </g>
            </g>
        </g>
    </g>
</svg>