<?xml version="1.0" encoding="UTF-8"?>
<svg width="46px" height="45px" viewBox="0 0 46 45" version="1.1" xmlns="http://www.w3.org/2000/svg" xmlns:xlink="http://www.w3.org/1999/xlink">
    <!-- Generator: sketchtool 59 (101010) - https://sketch.com -->
    <title>AA52F05A-5A3A-48B9-83ED-A46F59745031</title>
    <desc>Created with sketchtool.</desc>
    <g id="All-Pages" stroke="none" stroke-width="1" fill="none" fill-rule="evenodd">
        <g id="Home" transform="translate(-1270.000000, -43.000000)">
            <g id="above-the-fold">
                <g id=":header">
                    <g id=":social-[30h]" transform="translate(1117.000000, 43.000000)">
                        <g id="insta" transform="translate(153.000000, 0.000000)">
                            <path d="M4.38642627,10.5974449 C5.55410625,8.94798771 6.25683453,7.00727366 8.08180777,5.81828681 C9.08364993,5.16614101 9.91511077,4.26990847 10.9919207,3.65594801 C11.9301538,3.12135317 12.6601431,2.21987951 13.8778016,2.25132627 C15.2923452,1.15518222 17.185471,1.44793654 18.7189028,0.610853859 C19.3474206,0.267934479 20.2394615,0.34430517 21.0141285,0.328581793 C21.9061694,0.309114754 22.8050255,0.350295029 23.6713198,0.121931685 C25.393307,-0.332548804 26.8941772,0.610853859 28.4980333,0.872161422 C29.096261,0.969496618 29.7255361,1.21657827 30.3472386,1.32514445 C32.0980013,1.63062721 33.5027006,2.63692339 34.9944837,3.46876494 C36.2636352,4.17631694 37.5358157,4.83295514 38.299124,6.20837633 C38.6807782,6.89496382 39.5167825,7.28804827 40.0877493,7.90799859 C40.9858481,8.88135054 41.7802037,9.87042587 42.2254669,11.1148189 C42.504135,11.8942492 43.1992908,12.3891612 43.5332382,13.18132 C44.0670996,14.4429339 44.5752146,15.734497 44.942481,17.0253115 C45.3983457,18.6261011 45.7156335,20.2995177 45.6679268,22.0193557 C45.6300643,23.3842947 45.602046,24.7447412 45.5119332,26.1074339 C45.4861867,26.504262 45.3975884,26.8658997 45.3097474,27.2312811 C44.5668848,30.3317814 43.1833885,33.1627381 41.4189953,35.8042656 C40.9260253,36.5432643 40.5027224,37.3960704 39.6424861,37.855792 C39.4774055,37.9441424 39.2956654,38.1163509 39.2487159,38.2855643 C38.9034098,39.503003 37.7395161,40.00091 36.8633774,40.5579668 C34.3530927,42.1565102 31.7405791,43.6734418 28.7524694,44.2567042 C26.9176519,44.6145982 25.0623887,44.8444591 23.1798644,44.9769847 C21.2261586,45.1147514 19.3640801,44.5868952 17.4399071,44.6378089 C16.5062174,44.6617684 15.5854011,44.2275037 14.7456105,43.8973127 C13.001663,43.2122227 11.159273,42.6162318 9.69172193,41.416014 C8.94885938,40.8080434 8.07802152,40.4905809 7.30335446,39.9762018 C6.38329533,39.3637388 5.65027704,38.6764026 5.36327917,37.5922383 C5.32617391,37.4544715 5.28679689,37.2530625 5.1875971,37.2051437 C4.02067438,36.6346097 3.89724258,35.2853941 3.06881074,34.4535526 C2.43499223,33.8178789 2.40924572,32.8565066 2.05712433,32.0598555 C1.23096424,30.1895223 0.524449708,28.2667778 0.415405663,26.1830559 C0.361640892,25.1587901 0.223821336,24.1345244 0.0579835184,23.1199922 C-0.157075569,21.8142031 0.279100608,20.5967644 0.502489449,19.3516226 C0.639551754,18.5826746 0.848552839,17.8384347 0.828107081,17.0335475 C0.806904072,16.2368964 1.28397177,15.6379106 2.10407385,15.068874 C2.40621672,16.2795741 2.21160339,17.3390303 2.08287084,18.366291 C1.84509424,20.2553425 1.42633482,22.121932 1.20673223,24.012481 C1.01211891,25.6844002 1.58838639,27.2777025 2.03895032,28.8635174 C2.25098041,29.6077573 2.45392349,30.4216293 2.80831663,31.0535593 C3.50044341,32.2867214 3.89345632,34.0679555 5.29209764,34.4752658 C7.13675939,35.0113581 7.58580882,36.5866908 8.62551349,37.7112867 C9.50695285,38.6629254 10.4247402,39.5089929 11.6560292,39.9866841 C12.4382688,40.2906694 13.031953,40.7803403 13.6438113,41.4017881 C14.4275653,42.1984392 15.5566256,42.74726 16.7205193,43.0242909 C17.872297,43.2975782 19.0384625,43.5087207 20.1940264,43.767782 C20.7301597,43.8868305 21.2428181,43.9459803 21.8039406,43.8411578 C22.5301436,43.7056373 23.2843649,43.6434925 24.0241985,43.6592159 C27.1062072,43.725853 29.8141343,42.6214729 32.3100314,40.990734 C33.2974858,40.3453268 34.4712237,40.0667984 35.3746233,39.2956042 C35.5593924,39.1383704 35.8532055,39.0537637 35.9546771,38.8620882 C36.5370026,37.7689391 37.7289146,37.2141285 38.3445591,36.1629084 C38.5497739,35.8125016 38.8148115,35.5392144 39.1623894,35.3303181 C41.6840329,33.811889 42.8176366,31.2407424 43.3045486,28.6770831 C43.8649138,25.7225855 44.5085766,22.6707528 43.8740008,19.5769911 C43.3560416,17.0507684 43.057685,14.4541648 41.2720887,12.4018897 C40.2134528,11.1851997 39.2267557,9.89363657 38.0954237,8.75855845 C37.2594194,7.9199783 36.1083989,7.37115755 35.0543065,6.76842807 C33.7722817,6.03541917 32.738635,4.98569653 31.5217338,4.16957835 C31.1537101,3.9224967 30.8220345,3.58856211 30.3896446,3.5002117 C29.5248647,3.32201342 28.7895747,3.054716 28.0292954,2.49840792 C27.4454554,2.07163052 26.3951492,1.80807676 25.4887206,2.13302657 C24.2029096,2.59424565 22.9557183,2.57627607 21.5888815,2.32545076 C20.4272595,2.11206207 19.1391768,2.36663104 17.9427213,2.59424565 C16.6447942,2.84057857 15.3741282,3.25537625 14.2003903,3.89778854 C13.9868457,4.01459077 13.7801163,4.16433722 13.5499122,4.2309744 C11.5462279,4.81049318 9.71595394,5.64233473 8.30292486,7.25585278 C7.1731074,8.54591848 5.35116317,9.07227727 4.38642627,10.5974449" id="Fill-1" fill="#BDBDBD" fill-rule="nonzero"></path>
                            <path d="M22.75,25.8125 C20.0416531,25.8125 18.6875,24.4583469 18.6875,21.75 C18.6875,19.0416531 20.0416531,17.6875 22.75,17.6875 C25.4583469,17.6875 26.8125,19.0416531 26.8125,21.75 C26.8125,24.4583469 25.4583469,25.8125 22.75,25.8125 Z M18.7382812,17.7382812 C18.0273402,18.4492223 17.5533866,19.2447873 17.3164062,20.125 L13,20.125 L13,14.4375 C13,13.7265589 13.2369768,13.1510439 13.7109375,12.7109375 C14.2526069,12.2369768 14.8450489,12 15.4882812,12 L30.1132812,12 C30.7565136,12 31.3151018,12.2369768 31.7890625,12.7109375 C32.2630232,13.1848982 32.5,13.7604133 32.5,14.4375 L32.5,20.125 L28.234375,20.125 C27.9973946,19.2447873 27.5234411,18.4492223 26.8125,17.7382812 C25.6953069,16.6210882 24.3411538,16.0625 22.75,16.0625 C21.1927005,16.0625 19.8554743,16.6210882 18.7382812,17.7382812 Z M30.875,16.265625 L30.875,14.2851562 C30.875,14.1158846 30.8072923,13.9635423 30.671875,13.828125 C30.5364577,13.6927077 30.3841154,13.625 30.2148438,13.625 L28.2851562,13.625 C28.1158846,13.625 27.9635423,13.6927077 27.828125,13.828125 C27.6927077,13.9635423 27.625,14.1158846 27.625,14.2851562 L27.625,16.265625 C27.625,16.4348967 27.6927077,16.5872389 27.828125,16.7226562 C27.929688,16.8242193 28.0820302,16.875 28.2851562,16.875 L30.2148438,16.875 C30.4179698,16.875 30.570312,16.8242193 30.671875,16.7226562 C30.8072923,16.5872389 30.875,16.4348967 30.875,16.265625 Z M26.8125,25.7617188 C27.8958388,24.67838 28.4375,23.3411538 28.4375,21.75 L32.5,21.75 L32.5,29.0625 C32.5,29.671878 32.2630232,30.2473931 31.7890625,30.7890625 C31.3489561,31.2630232 30.790368,31.5 30.1132812,31.5 L15.4882812,31.5 C14.8111945,31.5 14.2356795,31.2630232 13.7617188,30.7890625 C13.2539037,30.2812475 13,29.7057324 13,29.0625 L13,21.75 L17.1132812,21.75 C17.1132812,23.3411538 17.6549425,24.67838 18.7382812,25.7617188 C19.8554743,26.8789118 21.1927005,27.4375 22.75,27.4375 C24.3411538,27.4375 25.6953069,26.8789118 26.8125,25.7617188 Z" id="ion-social-instagram---Ionicons" fill="#FFFFFF"></path>
                        </g>
                    </g>
                </g>
            </g>
        </g>
    </g>
</svg>