<?xml version="1.0" encoding="UTF-8"?>
<svg width="45px" height="45px" viewBox="0 0 45 45" version="1.1" xmlns="http://www.w3.org/2000/svg" xmlns:xlink="http://www.w3.org/1999/xlink">
    <!-- Generator: sketchtool 59 (101010) - https://sketch.com -->
    <title>C4229696-536D-4CF8-8E08-E68F5D55BA57</title>
    <desc>Created with sketchtool.</desc>
    <g id="All-Pages" stroke="none" stroke-width="1" fill="none" fill-rule="evenodd">
        <g id="Home" transform="translate(-1195.000000, -43.000000)">
            <g id="above-the-fold">
                <g id=":header">
                    <g id=":social-[30h]" transform="translate(1117.000000, 43.000000)">
                        <g id="twitter" transform="translate(78.000000, 0.000000)">
                            <path d="M1.13852811,23.2309591 C1.26285014,21.0384596 0.868528109,18.7970035 1.73649421,16.6692772 C1.80895184,16.4915273 1.78607048,16.2557828 1.89742641,16.1171981 C3.60132472,13.99851 4.21912133,11.2750203 5.90318913,9.14880037 C5.99318913,9.03431739 6.04810438,8.86635882 6.16403658,8.80309192 C8.48649421,7.52645614 9.93793489,5.16147895 12.4342908,4.04677632 C13.6294603,3.51352669 14.7887823,2.94111183 16.0609857,2.62176459 C16.7283586,2.45380602 17.4239518,2.30768959 18.0737823,2.60519468 C18.7670874,2.92228239 19.2864942,2.70386093 19.8333586,2.06064739 C21.1246298,3.30866242 22.3564095,3.21150253 23.6446298,2.41991303 C24.1266637,2.12316112 24.7658162,2.10131897 25.2066637,2.33480398 C25.9281891,2.71666495 26.7450535,2.76637466 27.4635281,3.20472393 C28.2674264,3.69428928 29.4221722,3.44423436 30.1986129,4.03623184 C31.1367484,4.75175042 32.4127654,4.57701325 33.3127654,5.46124357 C34.1593756,6.29425783 35.3103078,6.81771616 35.9586129,7.88798132 C36.0791213,8.08606698 36.2789518,8.25477873 36.4780196,8.3828189 C37.2079349,8.85204845 37.7006468,9.56380114 38.2978501,10.1264247 C39.8911552,11.6275074 40.1489518,13.6264403 40.8895451,15.4536488 C41.3891213,16.6881066 41.6873417,17.9187986 41.7842061,19.2767775 C41.8383586,20.0412526 42.2586129,20.8817987 42.2883586,21.7419273 C42.2929349,21.8865374 42.3554773,22.0560023 42.2997993,22.1712385 C41.3563247,24.1362784 41.9847993,26.2760556 41.6072569,28.3096347 C41.4768332,29.0100897 41.3647145,29.6585755 40.7964942,30.0788485 C40.1520027,30.556363 39.9064095,31.337408 39.2886129,31.8201948 C39.0071722,32.0401226 38.8309857,32.3632357 38.8721722,32.7089442 C38.9926807,33.7159424 38.0697993,34.465354 38.2078501,35.4768713 C38.2269179,35.6229877 38.0568332,35.8361369 37.9187823,35.955139 C36.6473417,37.054778 35.3644603,38.1408599 34.081579,39.227695 C34.0091213,39.2894555 33.919884,39.3527224 33.829884,39.3707987 C31.7225112,39.7978503 30.1497993,41.5150949 27.8746298,41.6740153 C27.1416637,41.7244782 26.3659857,42.4045975 25.5193756,42.6380825 C24.9694603,42.7902243 24.4988671,42.8565039 23.9725959,42.6094617 C23.2571722,42.2712851 22.5219179,42.2901145 21.7164942,42.3488623 C19.7586129,42.4919661 17.7831891,43.1268946 15.8176807,42.3699513 C15.5011552,42.2479366 15.0786129,42.2366389 14.8719179,42.0197238 C13.9070874,41.0044406 12.5288671,40.721999 11.3985281,40.0147654 C8.6657315,38.3035463 6.01149421,36.5991057 4.44107048,33.5427116 C3.11013828,30.9532875 2.04691794,28.311141 1.2666637,25.534929 C1.05615523,24.7847642 1.09505353,23.9976938 1.13852811,23.2309591 M0.00056200711,23.3296254 C0.0455620071,24.6574772 -0.122997315,25.9906013 0.315562007,27.304896 C0.512341668,27.8961403 0.769375566,28.4678019 0.9386976,29.0613058 C1.54734167,31.1988234 2.39547726,33.2271302 3.80496879,34.9677233 C5.53022302,37.0992155 7.25623997,39.2721325 9.59700269,40.7777342 C12.3137823,42.525859 15.3661552,43.6458339 18.4681044,44.4517338 C20.7661552,45.0490035 23.2068332,45.3133688 25.5826807,44.431398 C26.1661552,44.2152361 26.820562,44.1941471 27.4314942,44.0435116 C28.8333586,43.6985563 30.2619179,43.421387 31.6157315,42.9431193 C33.2929349,42.351875 34.4621722,40.8500392 36.1775112,40.2821434 C36.6183586,39.2359799 38.0293756,39.168194 38.4473417,38.0346619 C38.6120874,37.5865213 39.1459857,37.2325279 39.5792061,36.9320101 C39.9025959,36.7083164 40.0940366,28.9114235 40.3304773,28.6146715 C41.3143756,27.3847328 41.6301383,33.3544172 42.5011552,32.1033895 C43.0747145,31.2801665 43.065562,30.2407817 43.6940366,29.499655 C44.3774264,28.6937552 44.4758162,27.7605683 44.5787823,26.7814376 C44.8182739,24.5015695 45.2964942,22.2247141 44.4399688,19.9666881 C44.3919179,19.8394011 44.4056468,19.6782211 44.4247145,19.5373769 C44.6161552,18.1741257 44.2767484,16.8794137 43.7291213,15.6705639 C42.7917484,13.6053513 42.2357315,11.3224705 40.4220027,9.72121523 C40.2183586,9.54195899 40.1527654,9.21658634 39.9979349,8.97481637 C39.4808162,8.17117604 39.0933586,7.16794367 38.290223,6.70473954 C37.5999688,6.30630867 37.0584434,5.8077052 36.4589518,5.33169705 C35.78624,4.79769424 35.1196298,4.25540648 34.396579,3.76810067 C32.8200535,2.70310775 30.9597993,2.26475848 29.3390366,1.30144452 C28.7990366,0.980590926 28.0416637,0.469183438 27.2164095,0.797568806 C26.8327654,0.790790209 26.455223,0.713966109 26.071579,0.649192848 C25.2631044,0.51286773 24.5019179,-0.0392113406 23.765901,0.00221341909 C22.6836129,0.0617144376 21.5654773,-0.117541795 20.4892908,0.261306462 C19.9485281,0.451860356 19.3261552,0.570109216 18.7617484,0.515127262 C17.2309857,0.367504482 16.065562,1.58237971 14.5790366,1.52287869 C13.6401383,2.49071171 12.2771722,2.70612046 11.1414942,3.31092195 C8.20047726,4.87828423 5.98098574,7.22744469 4.20386709,9.79954568 C1.5877654,13.5865219 -0.144353247,17.8434808 0.0707314986,22.61486 C0.0806467529,22.8521109 -0.0078278234,23.0923745 0.00056200711,23.3296254" id="Fill-3" fill="#BDBDBD" fill-rule="nonzero"></path>
                            <path d="M33.125,16.15625 C32.5624972,17.0312544 31.8125047,17.8124966 30.875,18.5 L30.875,19.0625 C30.875,22.3437664 29.6953243,25.3202991 27.3359375,27.9921875 C24.9765507,30.6640759 21.8437695,32 17.9375,32 C15.4374875,32 13.1250106,31.3125069 11,29.9375 C11.5,30 11.8593739,30.03125 12.078125,30.03125 C14.1718855,30.03125 16.0468667,29.3750066 17.703125,28.0625 C16.7343702,28.0312498 15.8593789,27.7265654 15.078125,27.1484375 C14.2968711,26.5703096 13.7656264,25.8281295 13.484375,24.921875 C13.8593769,24.9843753 14.1406241,25.015625 14.328125,25.015625 C14.6406266,25.015625 15.0468725,24.9531256 15.546875,24.828125 C14.5156198,24.6093739 13.648441,24.0859416 12.9453125,23.2578125 C12.242184,22.4296834 11.890625,21.4687555 11.890625,20.375 L11.890625,20.328125 C12.5781284,20.7031269 13.2656216,20.890625 13.953125,20.890625 C12.6093683,20.0156206 11.9375,18.7500083 11.9375,17.09375 C11.9375,16.3124961 12.140623,15.5625036 12.546875,14.84375 C14.953137,17.8125148 18.0624809,19.3906241 21.875,19.578125 C21.8124997,19.3593739 21.78125,19.0156273 21.78125,18.546875 C21.78125,17.2656186 22.2187456,16.1875044 23.09375,15.3125 C23.9687544,14.4374956 25.0468686,14 26.328125,14 C27.6093814,14 28.7031205,14.4843702 29.609375,15.453125 C30.5468797,15.2968742 31.51562,14.921878 32.515625,14.328125 C32.2031234,15.4218805 31.5312552,16.265622 30.5,16.859375 C31.4687548,16.7656245 32.3437461,16.5312519 33.125,16.15625 Z" id="ion-social-twitter---Ionicons" fill="#FFFFFF"></path>
                        </g>
                    </g>
                </g>
            </g>
        </g>
    </g>
</svg>