<?xml version="1.0" encoding="UTF-8"?>
<svg width="45px" height="45px" viewBox="0 0 45 45" version="1.1" xmlns="http://www.w3.org/2000/svg" xmlns:xlink="http://www.w3.org/1999/xlink">
    <!-- Generator: sketchtool 59 (101010) - https://sketch.com -->
    <title>6EDC8D55-E30A-4139-A000-7587C1FD3666</title>
    <desc>Created with sketchtool.</desc>
    <g id="All-Pages" stroke="none" stroke-width="1" fill="none" fill-rule="evenodd">
        <g id="Home" transform="translate(-1346.000000, -43.000000)">
            <g id="above-the-fold">
                <g id=":header">
                    <g id=":social-[30h]" transform="translate(1117.000000, 43.000000)">
                        <g id="youtube" transform="translate(229.000000, 0.000000)">
                            <path d="M1.30630768,29.3267698 C1.80244221,30.0841467 2.5553019,30.5945856 2.65467937,31.4919943 C2.71716673,32.0506162 2.99120765,32.4187646 3.37591895,32.6830183 C4.32602787,33.3349948 5.15191494,34.1209803 5.99662351,34.8919086 C6.60342841,35.4452605 7.12139588,36.0784155 7.68077062,36.6641403 C8.87179464,37.910876 9.92730392,39.2456962 10.9873304,40.5970793 C11.4623848,41.2023785 12.3168806,41.5434239 13.0471544,41.9070552 C13.8579843,42.310588 14.7847546,42.4423384 15.5775158,42.91664 C15.7265821,43.0054774 15.96825,43.0258047 16.1376435,42.9776216 C17.64788,42.546233 18.9337643,43.1304521 20.2565388,43.7575843 C21.0477943,44.1325084 21.9595074,43.9759136 22.8268017,43.8780418 C23.3041148,43.8245888 23.7671235,43.5189277 24.2587409,43.9774193 C24.6675437,44.3576134 24.9656761,43.6800397 25.4407306,43.721447 C27.1316534,43.8690075 28.4694851,42.9889145 29.7327836,42.0109498 C30.3245313,41.5517054 30.9185376,41.1790398 31.7007588,41.2166828 C31.9973855,41.2302343 32.2970237,41.1647355 32.520623,40.9704977 C33.7778987,39.8811098 35.5087231,39.5942702 36.7961132,38.4860608 C36.3120244,39.4045496 35.6841394,40.1732193 34.8349137,40.7401227 C32.5740761,42.2496063 30.1641722,43.5761451 27.5329276,44.140037 C24.2918667,44.8356793 20.9747669,45.3882783 17.615507,44.6482173 C15.9930944,44.2898561 14.6153612,43.3261957 13.033603,42.9151343 C11.2794399,42.4589013 9.9800041,41.1142939 8.25143826,40.6128894 C7.72368362,40.459306 7.18388323,40.1415992 6.93920383,39.5393115 C6.55223396,38.5854382 5.53813196,38.25945 4.8763683,37.5645605 C4.0565041,36.7047947 3.47303785,35.6666012 3.04014353,34.6924008 C2.45140726,33.365862 1.35223212,32.1725794 1.46290249,30.5569426 C1.48774686,30.1985814 0.909550627,29.959172 1.30630768,29.3267698 Z M41.6924867,31.3614484 C41.6985096,32.9831082 40.9366156,34.4030015 39.319473,35.6813573 C39.920255,34.9796921 39.5460837,33.987423 40.0203853,33.2752177 C40.462314,32.6111955 41.1955993,32.1933584 41.6924867,31.3614484 Z M44.0514972,13.915958 L44.0514972,30.3102304 L41.7863036,30.3102304 L41.7863036,13.915958 L44.0514972,13.915958 Z M22.2060689,0.0599519261 C23.4625917,0.739031361 24.8764622,0.71795129 26.2285982,0.963383547 C29.1105451,1.48662103 33.2700948,3.19034249 35.0777109,5.54905188 C34.256341,5.48957597 33.5998474,5.10637039 32.9177565,4.80974367 C32.3403131,4.55979426 31.8223457,4.32264346 31.1214333,4.57936861 C30.3520107,4.86093813 29.70681,4.35125212 29.2543413,3.76703301 C28.2568022,2.48114867 27.0492153,2.18828625 25.5472602,2.74916672 C24.7635333,3.04278199 23.997875,3.52160075 23.0756219,3.03073624 C22.6517619,2.80563119 22.3084578,3.34392587 21.8190991,3.48621635 C20.9239489,2.93211162 19.8865082,2.81993553 18.8023903,2.94641595 C18.2219355,3.01266761 17.6475035,2.9418988 17.076083,2.7981026 C16.2652532,2.59407762 15.4258146,2.55643464 14.6360648,2.83047556 C11.7563765,3.83027322 9.23655516,5.37815273 7.30848151,7.79483232 C6.85525998,8.36399424 6.52776602,8.92186326 7.15038098,9.58739122 C7.23846556,9.68149868 7.31299867,9.87197218 7.27836712,9.98339542 C6.67457366,11.9596521 7.16694389,14.3070686 5.30662761,15.8624767 C5.23661166,15.9211997 5.1387399,16.0198244 5.14702136,16.0883346 C5.28554754,17.2439742 4.30381851,17.6452484 3.65711204,18.2302204 C3.08192724,18.7511993 2.57600554,19.2691668 2.39155491,20.0476237 C2.32530326,20.3261818 2.25754589,20.6484057 2.07685957,20.8471607 C0.888846985,22.148855 0.667506238,23.7637391 0.573398778,25.5781309 C-0.215598171,23.8706451 0.0433855605,22.218871 0.0313398055,20.6069984 C0.0192940506,18.9348971 0.0990971771,17.26129 0.188687479,15.5906943 C0.25795057,14.2889999 1.00403452,13.2741451 1.76216422,12.2863932 C2.12278401,11.8188673 2.60687278,11.4145817 2.05352092,10.7324908 C3.2377692,10.146766 3.96126735,9.46542796 4.4739648,8.5514563 C4.76080434,8.04026457 5.13045844,7.60511168 5.70790182,7.38075949 C6.4607615,7.08714421 6.81159412,6.31847448 7.43872623,5.8735344 C9.20719363,4.61927017 11.0193269,3.43953905 12.9195447,2.38553549 C13.7875919,1.90370529 14.7610395,1.80206923 15.6230639,1.38874927 C17.4909087,0.493599104 19.4844812,0.239132531 21.5059094,0.0591990664 C21.7453188,0.0373661356 21.9809639,-0.0627642024 22.2060689,0.0599519261 Z" id="Fill-4" fill="#BDBDBD" fill-rule="nonzero"></path>
                            <path d="M33.8710938,18.6523438 C33.9570317,20.1992265 34,21.7317632 34,23.25 C34,24.7682368 33.9570317,26.3007735 33.8710938,27.8476562 C33.8710938,28.8216195 33.5631541,29.6451789 32.9472656,30.3183594 C32.3313771,30.9915398 31.5794315,31.328125 30.6914062,31.328125 C28.4856661,31.4427089 25.9218896,31.5 23,31.5 C20.0781104,31.5 17.5143339,31.4427089 15.3085938,31.328125 C14.4205685,31.328125 13.6686229,30.9915398 13.0527344,30.3183594 C12.4368459,29.6451789 12.1289062,28.8216195 12.1289062,27.8476562 C12.0429683,26.3007735 12,24.7682368 12,23.25 C12,22.2473908 12.0572911,20.7148541 12.171875,18.6523438 C12.171875,17.6783805 12.4726532,16.8548211 13.0742188,16.1816406 C13.6757843,15.5084602 14.4205685,15.171875 15.3085938,15.171875 C17.39975,15.0572911 19.8346215,15 22.6132812,15 L23.3867188,15 C26.1653785,15 28.60025,15.0572911 30.6914062,15.171875 C31.5794315,15.171875 32.3313771,15.5084602 32.9472656,16.1816406 C33.5631541,16.8548211 33.8710938,17.6783805 33.8710938,18.6523438 Z M20.8945312,27.4609375 L27.125,23.25 L20.8945312,18.9960938 L20.8945312,27.4609375 Z" id="ion-social-youtube---Ionicons" fill="#FFFFFF"></path>
                        </g>
                    </g>
                </g>
            </g>
        </g>
    </g>
</svg>